<?xml version="1.0" encoding="UTF-8"?>
<!--Generator: Apple Native CoreSVG 175.5-->
<!DOCTYPE svg
PUBLIC "-//W3C//DTD SVG 1.1//EN"
       "http://www.w3.org/Graphics/SVG/1.1/DTD/svg11.dtd">
<svg version="1.1" xmlns="http://www.w3.org/2000/svg" xmlns:xlink="http://www.w3.org/1999/xlink" width="3300" height="2200">
 <!--glyph: "uni100BF0.medium", point size: 100.0, font version: "18.0d12e2", template writer version: "101"-->
 <style>.monochrome-0 {fill:#000000;-sfsymbols-variable-threshold:0.0}
.monochrome-1 {fill:#000000;-sfsymbols-clear-behind:true;-sfsymbols-variable-threshold:0.34}
.monochrome-2 {fill:#000000;-sfsymbols-clear-behind:true;-sfsymbols-variable-threshold:0.68}

.multicolor-0:tintColor {fill:#007AFF;-sfsymbols-variable-threshold:0.0}
.multicolor-1:tintColor {fill:#007AFF;-sfsymbols-clear-behind:true;-sfsymbols-variable-threshold:0.34}
.multicolor-2:tintColor {fill:#007AFF;-sfsymbols-clear-behind:true;-sfsymbols-variable-threshold:0.68}

.hierarchical-0:secondary {fill:#4D4D4D;-sfsymbols-variable-threshold:0.0}
.hierarchical-1:secondary {fill:#4D4D4D;-sfsymbols-clear-behind:true;-sfsymbols-variable-threshold:0.34}
.hierarchical-2:primary {fill:#212121;-sfsymbols-clear-behind:true;-sfsymbols-variable-threshold:0.68}

.SFSymbolsPreview007AFF {fill:#007AFF;opacity:1.0}
</style>
 <g id="Notes">
  <rect height="2200" id="artboard" style="fill:white;opacity:1" width="3300" x="0" y="0"/>
  <line style="fill:none;stroke:black;opacity:1;stroke-width:0.5;" x1="263" x2="3036" y1="292" y2="292"/>
  <text style="stroke:none;fill:black;font-family:sans-serif;font-size:13;font-weight:bold;" transform="matrix(1 0 0 1 263 322)">Weight/Scale Variations</text>
  <text style="stroke:none;fill:black;font-family:sans-serif;font-size:13;text-anchor:middle;" transform="matrix(1 0 0 1 559.711 322)">Ultralight</text>
  <text style="stroke:none;fill:black;font-family:sans-serif;font-size:13;text-anchor:middle;" transform="matrix(1 0 0 1 856.422 322)">Thin</text>
  <text style="stroke:none;fill:black;font-family:sans-serif;font-size:13;text-anchor:middle;" transform="matrix(1 0 0 1 1153.13 322)">Light</text>
  <text style="stroke:none;fill:black;font-family:sans-serif;font-size:13;text-anchor:middle;" transform="matrix(1 0 0 1 1449.84 322)">Regular</text>
  <text style="stroke:none;fill:black;font-family:sans-serif;font-size:13;text-anchor:middle;" transform="matrix(1 0 0 1 1746.56 322)">Medium</text>
  <text style="stroke:none;fill:black;font-family:sans-serif;font-size:13;text-anchor:middle;" transform="matrix(1 0 0 1 2043.27 322)">Semibold</text>
  <text style="stroke:none;fill:black;font-family:sans-serif;font-size:13;text-anchor:middle;" transform="matrix(1 0 0 1 2339.98 322)">Bold</text>
  <text style="stroke:none;fill:black;font-family:sans-serif;font-size:13;text-anchor:middle;" transform="matrix(1 0 0 1 2636.69 322)">Heavy</text>
  <text style="stroke:none;fill:black;font-family:sans-serif;font-size:13;text-anchor:middle;" transform="matrix(1 0 0 1 2933.4 322)">Black</text>
  <line style="fill:none;stroke:black;opacity:1;stroke-width:0.5;" x1="263" x2="3036" y1="1903" y2="1903"/>
  <g transform="matrix(1 0 0 1 263 1933)">
   <path d="M9.24805 0.830078C13.5547 0.830078 17.1387-2.74414 17.1387-7.05078C17.1387-11.3574 13.5449-14.9316 9.23828-14.9316C4.94141-14.9316 1.36719-11.3574 1.36719-7.05078C1.36719-2.74414 4.95117 0.830078 9.24805 0.830078ZM9.24805-0.654297C5.70312-0.654297 2.87109-3.49609 2.87109-7.05078C2.87109-10.6055 5.69336-13.4473 9.23828-13.4473C12.793-13.4473 15.6445-10.6055 15.6445-7.05078C15.6445-3.49609 12.8027-0.654297 9.24805-0.654297ZM5.6543-7.05078C5.6543-6.62109 5.95703-6.32812 6.40625-6.32812L8.50586-6.32812L8.50586-4.20898C8.50586-3.76953 8.79883-3.4668 9.22852-3.4668C9.67773-3.4668 9.9707-3.76953 9.9707-4.20898L9.9707-6.32812L12.0898-6.32812C12.5293-6.32812 12.832-6.62109 12.832-7.05078C12.832-7.49023 12.5293-7.79297 12.0898-7.79297L9.9707-7.79297L9.9707-9.90234C9.9707-10.3516 9.67773-10.6543 9.22852-10.6543C8.79883-10.6543 8.50586-10.3516 8.50586-9.90234L8.50586-7.79297L6.40625-7.79297C5.95703-7.79297 5.6543-7.49023 5.6543-7.05078Z"/>
  </g>
  <g transform="matrix(1 0 0 1 281.867 1933)">
   <path d="M11.709 2.91016C17.1582 2.91016 21.6699-1.61133 21.6699-7.05078C21.6699-12.5 17.1484-17.0117 11.6992-17.0117C6.25977-17.0117 1.74805-12.5 1.74805-7.05078C1.74805-1.61133 6.26953 2.91016 11.709 2.91016ZM11.709 1.25C7.09961 1.25 3.41797-2.44141 3.41797-7.05078C3.41797-11.6602 7.08984-15.3516 11.6992-15.3516C16.3086-15.3516 20.0098-11.6602 20.0098-7.05078C20.0098-2.44141 16.3184 1.25 11.709 1.25ZM7.17773-7.05078C7.17773-6.57227 7.50977-6.25 8.00781-6.25L10.8789-6.25L10.8789-3.36914C10.8789-2.88086 11.2109-2.53906 11.6895-2.53906C12.1777-2.53906 12.5195-2.87109 12.5195-3.36914L12.5195-6.25L15.4004-6.25C15.8887-6.25 16.2305-6.57227 16.2305-7.05078C16.2305-7.53906 15.8887-7.88086 15.4004-7.88086L12.5195-7.88086L12.5195-10.752C12.5195-11.25 12.1777-11.5918 11.6895-11.5918C11.2109-11.5918 10.8789-11.25 10.8789-10.752L10.8789-7.88086L8.00781-7.88086C7.50977-7.88086 7.17773-7.53906 7.17773-7.05078Z"/>
  </g>
  <g transform="matrix(1 0 0 1 305.646 1933)">
   <path d="M14.9707 5.66406C21.9336 5.66406 27.6953-0.0976562 27.6953-7.05078C27.6953-14.0137 21.9238-19.7754 14.9609-19.7754C8.00781-19.7754 2.25586-14.0137 2.25586-7.05078C2.25586-0.0976562 8.01758 5.66406 14.9707 5.66406ZM14.9707 3.84766C8.93555 3.84766 4.08203-1.01562 4.08203-7.05078C4.08203-13.0957 8.92578-17.9492 14.9609-17.9492C21.0059-17.9492 25.8691-13.0957 25.8691-7.05078C25.8691-1.01562 21.0156 3.84766 14.9707 3.84766ZM9.19922-7.05078C9.19922-6.5332 9.57031-6.17188 10.1172-6.17188L14.0625-6.17188L14.0625-2.2168C14.0625-1.67969 14.4336-1.29883 14.9512-1.29883C15.4883-1.29883 15.8594-1.66992 15.8594-2.2168L15.8594-6.17188L19.8145-6.17188C20.3516-6.17188 20.7324-6.5332 20.7324-7.05078C20.7324-7.59766 20.3613-7.96875 19.8145-7.96875L15.8594-7.96875L15.8594-11.9141C15.8594-12.4609 15.4883-12.8418 14.9512-12.8418C14.4336-12.8418 14.0625-12.4609 14.0625-11.9141L14.0625-7.96875L10.1172-7.96875C9.57031-7.96875 9.19922-7.59766 9.19922-7.05078Z"/>
  </g>
  <text style="stroke:none;fill:black;font-family:sans-serif;font-size:13;font-weight:bold;" transform="matrix(1 0 0 1 263 1953)">Design Variations</text>
  <text style="stroke:none;fill:black;font-family:sans-serif;font-size:13;" transform="matrix(1 0 0 1 263 1971)">Symbols are supported in up to nine weights and three scales.</text>
  <text style="stroke:none;fill:black;font-family:sans-serif;font-size:13;" transform="matrix(1 0 0 1 263 1989)">For optimal layout with text and other symbols, vertically align</text>
  <text style="stroke:none;fill:black;font-family:sans-serif;font-size:13;" transform="matrix(1 0 0 1 263 2007)">symbols with the adjacent text.</text>
  <line style="fill:none;stroke:#00AEEF;stroke-width:0.5;opacity:1.0;" x1="776" x2="776" y1="1919" y2="1933"/>
  <g transform="matrix(1 0 0 1 776 1933)">
   <path d="M3.31055 0.15625C3.82812 0.15625 4.08203-0.0390625 4.26758-0.585938L5.52734-4.0332L11.2891-4.0332L12.5488-0.585938C12.7344-0.0390625 12.9883 0.15625 13.4961 0.15625C14.0137 0.15625 14.3457-0.15625 14.3457-0.644531C14.3457-0.810547 14.3164-0.966797 14.2383-1.17188L9.6582-13.3691C9.43359-13.9648 9.0332-14.2676 8.4082-14.2676C7.80273-14.2676 7.39258-13.9746 7.17773-13.3789L2.59766-1.16211C2.51953-0.957031 2.49023-0.800781 2.49023-0.634766C2.49023-0.146484 2.80273 0.15625 3.31055 0.15625ZM6.00586-5.51758L8.37891-12.0898L8.42773-12.0898L10.8008-5.51758Z"/>
  </g>
  <line style="fill:none;stroke:#00AEEF;stroke-width:0.5;opacity:1.0;" x1="793.197" x2="793.197" y1="1919" y2="1933"/>
  <text style="stroke:none;fill:black;font-family:sans-serif;font-size:13;font-weight:bold;" transform="matrix(1 0 0 1 776 1953)">Margins</text>
  <text style="stroke:none;fill:black;font-family:sans-serif;font-size:13;" transform="matrix(1 0 0 1 776 1971)">Leading and trailing margins on the left and right side of each symbol</text>
  <text style="stroke:none;fill:black;font-family:sans-serif;font-size:13;" transform="matrix(1 0 0 1 776 1989)">can be adjusted by modifying the x-location of the margin guidelines.</text>
  <text style="stroke:none;fill:black;font-family:sans-serif;font-size:13;" transform="matrix(1 0 0 1 776 2007)">Modifications are automatically applied proportionally to all</text>
  <text style="stroke:none;fill:black;font-family:sans-serif;font-size:13;" transform="matrix(1 0 0 1 776 2025)">scales and weights.</text>
  <g transform="matrix(1 0 0 1 1289 1933)">
   <path d="M2.8418 1.86523L4.54102 3.57422C5.40039 4.44336 6.38672 4.38477 7.31445 3.35938L18.0078-8.42773L17.041-9.4043L6.42578 2.27539C6.07422 2.67578 5.74219 2.77344 5.27344 2.30469L4.10156 1.14258C3.63281 0.683594 3.74023 0.341797 4.14062-0.0195312L15.6152-10.8203L14.6387-11.7871L3.04688-0.898438C2.06055 0.0195312 1.98242 0.996094 2.8418 1.86523ZM9.25781-16.3281C8.83789-15.918 8.80859-15.3418 9.04297-14.9512C9.27734-14.5898 9.73633-14.3555 10.3809-14.5215C11.8457-14.8633 13.3691-14.9219 14.7949-13.9844L14.209-12.5293C13.8672-11.6992 14.043-11.1133 14.5801-10.5664L16.875-8.25195C17.3633-7.76367 17.7734-7.74414 18.3398-7.8418L19.4043-8.03711L20.0684-7.36328L20.0293-6.80664C19.9902-6.30859 20.1172-5.92773 20.6055-5.44922L21.3672-4.70703C21.8457-4.22852 22.4609-4.19922 22.9297-4.66797L25.8398-7.58789C26.3086-8.05664 26.2891-8.65234 25.8105-9.13086L25.0391-9.89258C24.5605-10.3711 24.1895-10.5273 23.7109-10.4883L23.1348-10.4395L22.4902-11.0742L22.7344-12.1973C22.8613-12.7637 22.7051-13.2031 22.1191-13.7891L19.9219-15.9766C16.582-19.2969 12.1484-19.2188 9.25781-16.3281ZM10.752-15.957C13.1836-17.7344 16.4746-17.4316 18.7012-15.2051L21.1328-12.793C21.3672-12.5586 21.4062-12.373 21.3379-12.0312L21.0156-10.5469L22.5195-9.0625L23.5059-9.12109C23.7598-9.13086 23.8379-9.11133 24.0332-8.91602L24.6094-8.33984L22.168-5.89844L21.5918-6.47461C21.3965-6.66992 21.3672-6.74805 21.377-7.01172L21.4453-7.98828L19.9512-9.47266L18.4277-9.21875C18.1055-9.15039 17.959-9.17969 17.7148-9.41406L15.7129-11.416C15.459-11.6504 15.4297-11.8164 15.5859-12.1875L16.4648-14.2773C14.9023-15.7324 12.8711-16.3574 10.8398-15.7617C10.6836-15.7227 10.625-15.8496 10.752-15.957Z"/>
  </g>
  <text style="stroke:none;fill:black;font-family:sans-serif;font-size:13;font-weight:bold;" transform="matrix(1 0 0 1 1289 1953)">Exporting</text>
  <text style="stroke:none;fill:black;font-family:sans-serif;font-size:13;" transform="matrix(1 0 0 1 1289 1971)">Symbols should be outlined when exporting to ensure the</text>
  <text style="stroke:none;fill:black;font-family:sans-serif;font-size:13;" transform="matrix(1 0 0 1 1289 1989)">design is preserved when submitting to Xcode.</text>
  <text id="template-version" style="stroke:none;fill:black;font-family:sans-serif;font-size:13;text-anchor:end;" transform="matrix(1 0 0 1 3036 1933)">Template v.4.0</text>
  <text style="stroke:none;fill:black;font-family:sans-serif;font-size:13;text-anchor:end;" transform="matrix(1 0 0 1 3036 1951)">Requires Xcode 14 or greater</text>
  <text id="descriptive-name" style="stroke:none;fill:black;font-family:sans-serif;font-size:13;text-anchor:end;" transform="matrix(1 0 0 1 3036 1969)">Generated from square.3.layers.3d</text>
  <text style="stroke:none;fill:black;font-family:sans-serif;font-size:13;text-anchor:end;" transform="matrix(1 0 0 1 3036 1987)">Typeset at 100 points</text>
  <text style="stroke:none;fill:black;font-family:sans-serif;font-size:13;" transform="matrix(1 0 0 1 263 726)">Small</text>
  <text style="stroke:none;fill:black;font-family:sans-serif;font-size:13;" transform="matrix(1 0 0 1 263 1156)">Medium</text>
  <text style="stroke:none;fill:black;font-family:sans-serif;font-size:13;" transform="matrix(1 0 0 1 263 1586)">Large</text>
 </g>
 <g id="Guides">
  <g id="H-reference" style="fill:#27AAE1;stroke:none;" transform="matrix(1 0 0 1 339 696)">
   <path d="M0.993654 0L3.63775 0L29.3281-67.1323L30.0303-67.1323L30.0303-70.459L28.1226-70.459ZM11.6885-24.4799L46.9815-24.4799L46.2315-26.7285L12.4385-26.7285ZM55.1196 0L57.7637 0L30.6382-70.459L29.4326-70.459L29.4326-67.1323Z"/>
  </g>
  <line id="Baseline-S" style="fill:none;stroke:#27AAE1;opacity:1;stroke-width:0.5;" x1="263" x2="3036" y1="696" y2="696"/>
  <line id="Capline-S" style="fill:none;stroke:#27AAE1;opacity:1;stroke-width:0.5;" x1="263" x2="3036" y1="625.541" y2="625.541"/>
  <g id="H-reference" style="fill:#27AAE1;stroke:none;" transform="matrix(1 0 0 1 339 1126)">
   <path d="M0.993654 0L3.63775 0L29.3281-67.1323L30.0303-67.1323L30.0303-70.459L28.1226-70.459ZM11.6885-24.4799L46.9815-24.4799L46.2315-26.7285L12.4385-26.7285ZM55.1196 0L57.7637 0L30.6382-70.459L29.4326-70.459L29.4326-67.1323Z"/>
  </g>
  <line id="Baseline-M" style="fill:none;stroke:#27AAE1;opacity:1;stroke-width:0.5;" x1="263" x2="3036" y1="1126" y2="1126"/>
  <line id="Capline-M" style="fill:none;stroke:#27AAE1;opacity:1;stroke-width:0.5;" x1="263" x2="3036" y1="1055.54" y2="1055.54"/>
  <g id="H-reference" style="fill:#27AAE1;stroke:none;" transform="matrix(1 0 0 1 339 1556)">
   <path d="M0.993654 0L3.63775 0L29.3281-67.1323L30.0303-67.1323L30.0303-70.459L28.1226-70.459ZM11.6885-24.4799L46.9815-24.4799L46.2315-26.7285L12.4385-26.7285ZM55.1196 0L57.7637 0L30.6382-70.459L29.4326-70.459L29.4326-67.1323Z"/>
  </g>
  <line id="Baseline-L" style="fill:none;stroke:#27AAE1;opacity:1;stroke-width:0.5;" x1="263" x2="3036" y1="1556" y2="1556"/>
  <line id="Capline-L" style="fill:none;stroke:#27AAE1;opacity:1;stroke-width:0.5;" x1="263" x2="3036" y1="1485.54" y2="1485.54"/>
  <line id="left-margin-Ultralight-S" style="fill:none;stroke:#00AEEF;stroke-width:0.5;opacity:1.0;" x1="513.586" x2="513.586" y1="600.785" y2="720.121"/>
  <line id="right-margin-Ultralight-S" style="fill:none;stroke:#00AEEF;stroke-width:0.5;opacity:1.0;" x1="605.836" x2="605.836" y1="600.785" y2="720.121"/>
  <line id="left-margin-Regular-S" style="fill:none;stroke:#00AEEF;stroke-width:0.5;opacity:1.0;" x1="1400.38" x2="1400.38" y1="600.785" y2="720.121"/>
  <line id="right-margin-Regular-S" style="fill:none;stroke:#00AEEF;stroke-width:0.5;opacity:1.0;" x1="1499.31" x2="1499.31" y1="600.785" y2="720.121"/>
  <line id="left-margin-Black-S" style="fill:none;stroke:#00AEEF;stroke-width:0.5;opacity:1.0;" x1="2881.64" x2="2881.64" y1="600.785" y2="720.121"/>
  <line id="right-margin-Black-S" style="fill:none;stroke:#00AEEF;stroke-width:0.5;opacity:1.0;" x1="2985.16" x2="2985.16" y1="600.785" y2="720.121"/>
 </g>
 <g id="Symbols">
  <g id="Black-S" transform="matrix(1 0 0 1 2881.64 696)">
   <path class="monochrome-0 multicolor-0:tintColor hierarchical-0:secondary SFSymbolsPreview007AFF" d="M66.6016-21.6797L76.0254-16.4551C76.1719-16.3574 76.2207-16.2598 76.2207-16.1133C76.2207-15.9668 76.1719-15.8691 76.0254-15.7715L52.6367-2.7832C52.2461-2.58789 52.0508-2.49023 51.7578-2.49023C51.4648-2.49023 51.2695-2.58789 50.8789-2.7832L27.4902-15.7715C27.3438-15.8691 27.2949-15.9668 27.2949-16.1133C27.2949-16.2598 27.3438-16.3574 27.4902-16.4551L38.623-22.6562L26.2695-30.8594L16.1621-25.0488C12.207-22.7539 9.76562-20.166 9.76562-16.1133C9.76562-12.0605 12.207-9.47266 16.1621-7.17773L44.9707 9.42383C47.7539 11.0352 49.707 11.9629 51.7578 11.9629C53.8086 11.9629 55.7617 11.0352 58.5449 9.42383L87.3535-7.17773C91.3086-9.47266 93.75-12.0605 93.75-16.1133C93.75-20.166 91.3086-22.7539 87.3535-25.0488L78.6621-30.0781Z"/>
   <path class="monochrome-1 multicolor-1:tintColor hierarchical-1:secondary SFSymbolsPreview007AFF" d="M66.8945-40.5762L76.0254-35.498C76.1719-35.4004 76.2207-35.3027 76.2207-35.1562C76.2207-35.0098 76.1719-34.9121 76.0254-34.8145L52.6367-21.8262C52.2461-21.6309 52.0508-21.5332 51.7578-21.5332C51.4648-21.5332 51.2695-21.6309 50.8789-21.8262L27.4902-34.8145C27.3438-34.9121 27.2949-35.0098 27.2949-35.1562C27.2949-35.3027 27.3438-35.4004 27.4902-35.498L36.9629-40.7715L24.6094-48.9258L16.1621-44.0918C12.207-41.7969 9.76562-39.209 9.76562-35.1562C9.76562-31.1035 12.207-28.5156 16.1621-26.2207L44.9707-9.61914C47.7539-8.00781 49.707-7.08008 51.7578-7.08008C53.8086-7.08008 55.7617-8.00781 58.5449-9.61914L87.3535-26.2207C91.3086-28.5156 93.75-31.1035 93.75-35.1562C93.75-39.209 91.3086-41.7969 87.3535-44.0918L79.9316-48.3398Z"/>
   <path class="monochrome-2 multicolor-2:tintColor hierarchical-2:primary SFSymbolsPreview007AFF" d="M51.7578-26.6113C53.8086-26.6113 55.7617-27.5391 58.5449-29.1504L87.3535-45.752C91.3086-48.0469 93.75-50.6348 93.75-54.6875C93.75-58.7402 91.3086-61.3281 87.3535-63.623L58.5449-80.2246C55.7617-81.8359 53.8086-82.7637 51.7578-82.7637C49.707-82.7637 47.7539-81.8359 44.9707-80.2246L16.1621-63.623C12.207-61.3281 9.76562-58.7402 9.76562-54.6875C9.76562-50.6348 12.207-48.0469 16.1621-45.752L44.9707-29.1504C47.7539-27.5391 49.707-26.6113 51.7578-26.6113ZM51.7578-41.0645C51.4648-41.0645 51.2695-41.1621 50.8789-41.3574L27.4902-54.3457C27.3438-54.4434 27.2949-54.541 27.2949-54.6875C27.2949-54.834 27.3438-54.9316 27.4902-55.0293L50.8789-68.0176C51.2695-68.2129 51.4648-68.3105 51.7578-68.3105C52.0508-68.3105 52.2461-68.2129 52.6367-68.0176L76.0254-55.0293C76.1719-54.9316 76.2207-54.834 76.2207-54.6875C76.2207-54.541 76.1719-54.4434 76.0254-54.3457L52.6367-41.3574C52.2461-41.1621 52.0508-41.0645 51.7578-41.0645Z"/>
  </g>
  <g id="Regular-S" transform="matrix(1 0 0 1 1400.38 696)">
   <path class="monochrome-0 multicolor-0:tintColor hierarchical-0:secondary SFSymbolsPreview007AFF" d="M69.1406-22.2656L79.7852-16.2109C79.9316-16.1621 79.9805-16.1133 79.9805-15.9668C79.9805-15.8691 79.9316-15.7715 79.7852-15.7227L51.2695 0.537109C50.5859 0.927734 50.0488 1.12305 49.4629 1.12305C48.877 1.12305 48.3398 0.927734 47.6562 0.537109L19.1406-15.7227C18.9941-15.7715 18.9453-15.8691 18.9453-15.9668C18.9453-16.1133 18.9941-16.1621 19.1406-16.2109L30.7617-22.8027L23.4375-27.002L14.502-21.8262C11.0352-19.7754 9.76562-18.2617 9.76562-15.9668C9.76562-13.6719 11.0352-12.1582 14.502-10.1562L44.043 7.08008C46.0938 8.25195 47.7539 8.78906 49.4629 8.78906C51.1719 8.78906 52.832 8.25195 54.8828 7.08008L84.4238-10.1562C87.8906-12.1582 89.1602-13.6719 89.1602-15.9668C89.1602-18.2617 87.8906-19.7754 84.4238-21.8262L75.9766-26.7578Z"/>
   <path class="monochrome-1 multicolor-1:tintColor hierarchical-1:secondary SFSymbolsPreview007AFF" d="M68.3105-40.1367L79.7852-33.5938C79.9316-33.4961 79.9805-33.4473 79.9805-33.3496C79.9805-33.2031 79.9316-33.1543 79.7852-33.1055L51.2695-16.7969C50.5859-16.4551 50.0488-16.2598 49.4629-16.2598C48.877-16.2598 48.3398-16.4551 47.6562-16.7969L19.1406-33.1055C18.9941-33.1543 18.9453-33.2031 18.9453-33.3496C18.9453-33.4473 18.9941-33.4961 19.1406-33.5938L31.7383-40.7715L24.707-45.0684L14.502-39.1602C11.0352-37.1582 9.76562-35.6445 9.76562-33.3496C9.76562-31.0547 11.0352-29.541 14.502-27.4902L44.043-10.3027C46.0938-9.13086 47.7539-8.59375 49.4629-8.59375C51.1719-8.59375 52.832-9.13086 54.8828-10.3027L84.4238-27.4902C87.8906-29.541 89.1602-31.0547 89.1602-33.3496C89.1602-35.6445 87.8906-37.1582 84.4238-39.1602L75.0977-44.6289Z"/>
   <path class="monochrome-2 multicolor-2:tintColor hierarchical-2:primary SFSymbolsPreview007AFF" d="M49.4629-27.2949C51.1719-27.2949 52.832-27.832 54.8828-29.0039L84.4238-46.1914C87.8906-48.2422 89.1602-49.7559 89.1602-52.0508C89.1602-54.2969 87.8906-55.8594 84.4238-57.8613L54.8828-75.0488C52.832-76.2695 51.1719-76.7578 49.4629-76.7578C47.7539-76.7578 46.0938-76.2695 44.043-75.0488L14.502-57.8613C11.0352-55.8594 9.76562-54.2969 9.76562-52.0508C9.76562-49.7559 11.0352-48.2422 14.502-46.1914L44.043-29.0039C46.0938-27.832 47.7539-27.2949 49.4629-27.2949ZM49.4629-34.9609C48.877-34.9609 48.3398-35.1562 47.6562-35.498L19.1406-51.8066C18.9941-51.8555 18.9453-51.9043 18.9453-52.0508C18.9453-52.1484 18.9941-52.1973 19.1406-52.2949L47.6562-68.5547C48.3398-68.9453 48.877-69.1406 49.4629-69.1406C50.0488-69.1406 50.5859-68.9453 51.2695-68.5547L79.7852-52.2949C79.9316-52.1973 79.9805-52.1484 79.9805-52.0508C79.9805-51.9043 79.9316-51.8555 79.7852-51.8066L51.2695-35.498C50.5859-35.1562 50.0488-34.9609 49.4629-34.9609Z"/>
  </g>
  <g id="Ultralight-S" transform="matrix(1 0 0 1 513.586 696)">
   <path class="monochrome-0 multicolor-0:tintColor hierarchical-0:secondary SFSymbolsPreview007AFF" d="M65.9165-25.4897L79.104-17.8911C79.523-17.6606 79.8442-17.3848 79.8442-16.875C79.8442-16.4141 79.523-16.1348 79.104-15.9043L47.2735 2.39891C46.8169 2.65331 46.5069 2.80321 46.1026 2.80321C45.6983 2.80321 45.4336 2.65331 44.9771 2.39891L13.1465-15.9043C12.7276-16.1348 12.4063-16.4141 12.4063-16.875C12.4063-17.3848 12.7276-17.6606 13.1465-17.8911L26.7202-25.6636L24.3911-26.9111L12.0498-19.7827C10.5811-18.958 9.76562-18.1709 9.76562-16.875C9.76562-15.6245 10.5811-14.8374 12.0498-14.0161L43.6343 4.21926C44.5952 4.7554 45.3018 5.11087 46.1026 5.11087C46.9488 5.11087 47.6553 4.7554 48.6163 4.21926L80.2007-14.0161C81.6695-14.8374 82.4849-15.6245 82.4849-16.875C82.4849-18.1709 81.6695-18.958 80.2007-19.7827L68.1207-26.7578Z"/>
   <path class="monochrome-1 multicolor-1:tintColor hierarchical-1:secondary SFSymbolsPreview007AFF" d="M65.041-44.7231L79.104-36.6362C79.523-36.4023 79.8442-36.1264 79.8442-35.6655C79.8442-35.2012 79.523-34.9253 79.104-34.6948L47.2735-16.3882C46.8169-16.1372 46.5069-15.9873 46.1026-15.9873C45.6983-15.9873 45.4336-16.1372 44.9771-16.3882L13.1465-34.6948C12.7276-34.9253 12.4063-35.2012 12.4063-35.6655C12.4063-36.1264 12.7276-36.4023 13.1465-36.6362L27.3789-44.8584L25.2065-46.1582L12.0498-38.5698C10.5811-37.7031 9.76562-36.9614 9.76562-35.6655C9.76562-34.415 10.5811-33.6279 12.0498-32.8032L43.6343-14.5713C44.5952-13.9897 45.3018-13.6342 46.1026-13.6342C46.9488-13.6342 47.6553-13.9897 48.6163-14.5713L80.2007-32.8032C81.6695-33.6279 82.4849-34.415 82.4849-35.6655C82.4849-36.9614 81.6695-37.7031 80.2007-38.5698L67.2418-46.0366Z"/>
   <path class="monochrome-2 multicolor-2:tintColor hierarchical-2:primary SFSymbolsPreview007AFF" d="M46.1026-33.1074C46.9488-33.1074 47.6553-33.4628 48.6163-33.999L80.2007-52.2309C81.6695-53.0556 82.4849-53.8427 82.4849-55.0932C82.4849-56.3857 81.6695-57.1763 80.2007-57.9976L48.6163-76.2295C47.6553-76.769 46.9488-77.1211 46.1026-77.1211C45.3018-77.1211 44.5952-76.769 43.6343-76.2295L12.0498-57.9976C10.5811-57.1763 9.76562-56.3857 9.76562-55.0932C9.76562-53.8427 10.5811-53.0556 12.0498-52.2309L43.6343-33.999C44.5952-33.4628 45.3018-33.1074 46.1026-33.1074ZM46.1026-35.415C45.6983-35.415 45.4336-35.5649 44.9771-35.8159L13.1465-54.1225C12.7276-54.353 12.4063-54.6289 12.4063-55.0932C12.4063-55.5996 12.7276-55.8755 13.1465-56.1093L44.9771-74.4126C45.4336-74.6669 45.6983-74.8168 46.1026-74.8168C46.5069-74.8168 46.8169-74.6669 47.2735-74.4126L79.104-56.1093C79.523-55.8755 79.8442-55.5996 79.8442-55.0932C79.8442-54.6289 79.523-54.353 79.104-54.1225L47.2735-35.8159C46.8169-35.5649 46.5069-35.415 46.1026-35.415Z"/>
  </g>
 </g>
</svg>
